<svg width="438" height="903" viewBox="0 0 438 903" fill="none" xmlns="http://www.w3.org/2000/svg">
<g filter="url(#filter0_dii_566_576)">
<g clip-path="url(#clip0_566_576)">
<path d="M39 62H399V840C399 851.598 389.598 861 378 861H60C48.402 861 39 851.598 39 840V62Z" fill="#F8F8F8"/>
<g clip-path="url(#clip1_566_576)">
<rect width="360" height="800" transform="translate(39 62)" fill="#D45769"/>
<path d="M104.004 412.28H103.62C103.193 413.645 102.681 415.16 102.084 416.824C101.529 418.488 100.953 420.237 100.356 422.072C99.7584 423.864 99.1824 425.656 98.6278 427.448L97.4758 433.208C97.2198 434.019 96.9638 434.872 96.7078 435.768C96.4944 436.664 96.2598 437.539 96.0038 438.392C95.7478 439.245 95.5131 440.056 95.2998 440.824C95.0864 441.592 94.8731 442.317 94.6598 443C94.1904 443.128 93.6571 443.256 93.0598 443.384C92.4624 443.555 91.7584 443.64 90.9478 443.64C89.1558 443.64 87.7904 443.32 86.8518 442.68C85.9131 442.04 85.4438 441.101 85.4438 439.864C85.4438 439.352 85.5078 438.819 85.6358 438.264C85.8064 437.709 85.9984 437.069 86.2118 436.344C86.5958 434.936 87.1291 433.165 87.8118 431.032C88.5371 428.899 89.3051 426.595 90.1158 424.12C90.9691 421.603 91.8224 419.128 92.6758 416.696C93.5718 414.264 94.3824 412.024 95.1078 409.976C95.8758 407.928 96.4944 406.328 96.9638 405.176C97.5611 404.792 98.4998 404.451 99.7798 404.152C101.102 403.811 102.404 403.64 103.684 403.64C105.518 403.64 107.161 403.917 108.612 404.472C110.062 404.984 110.98 405.816 111.364 406.968C112.174 409.229 113.049 411.853 113.988 414.84C114.969 417.784 115.95 420.877 116.932 424.12C117.913 427.363 118.852 430.52 119.748 433.592C120.686 436.621 121.497 439.352 122.18 441.784C121.71 442.296 121.028 442.723 120.132 443.064C119.236 443.448 118.169 443.64 116.932 443.64C115.182 443.64 113.945 443.32 113.22 442.68C112.494 442.04 111.94 441.08 111.556 439.8L109.508 432.632L108.42 427.192C107.908 425.272 107.374 423.416 106.82 421.624C106.265 419.832 105.753 418.147 105.284 416.568C104.814 414.947 104.388 413.517 104.004 412.28ZM93.1878 434.36L96.9638 426.808H111.94L113.22 434.36H93.1878ZM142.413 443.96C145.399 443.96 148.066 443.341 150.413 442.104C152.759 440.824 154.615 438.968 155.981 436.536C157.346 434.104 158.029 431.075 158.029 427.448C158.029 423.693 157.325 420.643 155.917 418.296C154.509 415.907 152.525 414.157 149.965 413.048C147.447 411.896 144.546 411.32 141.261 411.32C138.829 411.32 136.631 411.597 134.669 412.152C132.706 412.664 131.085 413.325 129.805 414.136C128.909 414.691 128.247 415.331 127.821 416.056C127.394 416.739 127.181 417.613 127.181 418.68V439.608H136.589V420.024C137.143 419.683 137.805 419.405 138.573 419.192C139.383 418.936 140.279 418.808 141.261 418.808C142.711 418.808 143.97 419.107 145.037 419.704C146.103 420.301 146.914 421.24 147.469 422.52C148.066 423.757 148.365 425.4 148.365 427.448C148.365 430.435 147.703 432.675 146.381 434.168C145.101 435.661 143.287 436.408 140.941 436.408C139.618 436.408 138.423 436.152 137.357 435.64C136.333 435.128 135.458 434.573 134.733 433.976V441.976C135.671 442.488 136.781 442.936 138.061 443.32C139.341 443.747 140.791 443.96 142.413 443.96ZM136.653 437.176H127.181V450.488C127.181 452.195 127.586 453.368 128.397 454.008C129.25 454.648 130.573 454.968 132.365 454.968C133.261 454.968 134.093 454.904 134.861 454.776C135.629 454.648 136.226 454.52 136.653 454.392V437.176ZM173.528 420.536V428.536H164.056V419.384C164.056 418.189 164.333 417.187 164.888 416.376C165.485 415.523 166.296 414.776 167.32 414.136C168.728 413.283 170.413 412.621 172.376 412.152C174.381 411.64 176.472 411.384 178.648 411.384C183 411.384 185.176 412.835 185.176 415.736C185.176 416.419 185.069 417.059 184.856 417.656C184.685 418.253 184.472 418.765 184.216 419.192C183.789 419.107 183.256 419.043 182.616 419C182.018 418.915 181.357 418.872 180.632 418.872C179.352 418.872 178.072 419.021 176.792 419.32C175.512 419.619 174.424 420.024 173.528 420.536ZM164.056 426.104L173.528 426.296V442.936C173.101 443.064 172.504 443.171 171.736 443.256C170.968 443.384 170.136 443.448 169.24 443.448C167.448 443.448 166.125 443.128 165.272 442.488C164.461 441.848 164.056 440.696 164.056 439.032V426.104ZM193.284 432.12L192.9 425.72L208.772 423.224C208.687 422.029 208.175 420.92 207.236 419.896C206.298 418.872 204.911 418.36 203.076 418.36C201.156 418.36 199.556 419.021 198.276 420.344C196.996 421.624 196.314 423.459 196.228 425.848L196.548 430.264C196.932 432.611 197.935 434.296 199.556 435.32C201.178 436.301 203.098 436.792 205.316 436.792C207.108 436.792 208.794 436.536 210.372 436.024C211.951 435.512 213.231 434.979 214.212 434.424C214.852 434.808 215.364 435.341 215.748 436.024C216.175 436.707 216.388 437.432 216.388 438.2C216.388 439.48 215.876 440.547 214.852 441.4C213.871 442.253 212.484 442.893 210.692 443.32C208.943 443.747 206.938 443.96 204.676 443.96C201.391 443.96 198.426 443.341 195.78 442.104C193.178 440.867 191.13 439.011 189.636 436.536C188.143 434.061 187.396 430.968 187.396 427.256C187.396 424.525 187.823 422.157 188.676 420.152C189.572 418.147 190.746 416.504 192.196 415.224C193.69 413.901 195.354 412.92 197.188 412.28C199.066 411.64 201.007 411.32 203.012 411.32C205.956 411.32 208.516 411.917 210.692 413.112C212.911 414.264 214.639 415.843 215.876 417.848C217.114 419.853 217.732 422.179 217.732 424.824C217.732 426.147 217.37 427.149 216.644 427.832C215.919 428.515 214.916 428.941 213.636 429.112L193.284 432.12ZM252.932 423.096V429.112H243.396V423.416C243.396 421.837 242.926 420.685 241.988 419.96C241.092 419.192 239.897 418.808 238.404 418.808C237.337 418.808 236.356 418.957 235.46 419.256C234.564 419.512 233.753 419.832 233.028 420.216V429.112H223.556V419.128C223.556 418.061 223.769 417.187 224.196 416.504C224.665 415.779 225.326 415.139 226.18 414.584C227.545 413.645 229.294 412.877 231.428 412.28C233.561 411.64 235.908 411.32 238.468 411.32C243.076 411.32 246.638 412.344 249.156 414.392C251.673 416.397 252.932 419.299 252.932 423.096ZM223.556 426.168H233.028V442.936C232.601 443.064 232.004 443.171 231.236 443.256C230.468 443.384 229.636 443.448 228.74 443.448C226.948 443.448 225.625 443.128 224.772 442.488C223.961 441.848 223.556 440.696 223.556 439.032V426.168ZM243.396 426.168H252.932V442.936C252.505 443.064 251.908 443.171 251.14 443.256C250.372 443.384 249.54 443.448 248.644 443.448C246.852 443.448 245.529 443.128 244.676 442.488C243.822 441.848 243.396 440.696 243.396 439.032V426.168ZM280.272 435.384V416.12H289.744V436.6C289.744 437.624 289.531 438.499 289.104 439.224C288.678 439.907 287.995 440.525 287.056 441.08C285.904 441.848 284.411 442.509 282.576 443.064C280.742 443.661 278.63 443.96 276.24 443.96C272.656 443.96 269.563 443.363 266.96 442.168C264.4 440.973 262.416 439.181 261.008 436.792C259.6 434.36 258.896 431.352 258.896 427.768C258.896 424.013 259.6 420.941 261.008 418.552C262.459 416.12 264.4 414.307 266.832 413.112C269.264 411.917 271.952 411.32 274.896 411.32C276.432 411.32 277.798 411.491 278.992 411.832C280.187 412.173 281.168 412.579 281.936 413.048V420.856C281.339 420.344 280.55 419.875 279.568 419.448C278.587 419.021 277.456 418.808 276.176 418.808C274.683 418.808 273.36 419.128 272.208 419.768C271.056 420.408 270.16 421.389 269.52 422.712C268.88 424.035 268.56 425.72 268.56 427.768C268.56 430.755 269.222 432.952 270.544 434.36C271.91 435.768 273.744 436.472 276.048 436.472C276.987 436.472 277.819 436.365 278.544 436.152C279.27 435.896 279.846 435.64 280.272 435.384ZM289.744 417.976L280.272 418.04V401.336C280.656 401.208 281.232 401.08 282 400.952C282.768 400.824 283.6 400.76 284.496 400.76C286.374 400.76 287.718 401.08 288.528 401.72C289.339 402.36 289.744 403.533 289.744 405.24V417.976ZM301.722 432.12L301.338 425.72L317.21 423.224C317.124 422.029 316.612 420.92 315.674 419.896C314.735 418.872 313.348 418.36 311.514 418.36C309.594 418.36 307.994 419.021 306.714 420.344C305.434 421.624 304.751 423.459 304.666 425.848L304.986 430.264C305.37 432.611 306.372 434.296 307.994 435.32C309.615 436.301 311.535 436.792 313.754 436.792C315.546 436.792 317.231 436.536 318.81 436.024C320.388 435.512 321.668 434.979 322.65 434.424C323.29 434.808 323.802 435.341 324.186 436.024C324.612 436.707 324.826 437.432 324.826 438.2C324.826 439.48 324.314 440.547 323.29 441.4C322.308 442.253 320.922 442.893 319.13 443.32C317.38 443.747 315.375 443.96 313.114 443.96C309.828 443.96 306.863 443.341 304.218 442.104C301.615 440.867 299.567 439.011 298.074 436.536C296.58 434.061 295.834 430.968 295.834 427.256C295.834 424.525 296.26 422.157 297.114 420.152C298.01 418.147 299.183 416.504 300.634 415.224C302.127 413.901 303.791 412.92 305.626 412.28C307.503 411.64 309.444 411.32 311.45 411.32C314.394 411.32 316.954 411.917 319.13 413.112C321.348 414.264 323.076 415.843 324.314 417.848C325.551 419.853 326.17 422.179 326.17 424.824C326.17 426.147 325.807 427.149 325.082 427.832C324.356 428.515 323.354 428.941 322.074 429.112L301.722 432.12ZM341.465 420.536V428.536H331.993V419.384C331.993 418.189 332.271 417.187 332.825 416.376C333.423 415.523 334.233 414.776 335.257 414.136C336.665 413.283 338.351 412.621 340.313 412.152C342.319 411.64 344.409 411.384 346.585 411.384C350.937 411.384 353.113 412.835 353.113 415.736C353.113 416.419 353.007 417.059 352.793 417.656C352.623 418.253 352.409 418.765 352.153 419.192C351.727 419.107 351.193 419.043 350.553 419C349.956 418.915 349.295 418.872 348.569 418.872C347.289 418.872 346.009 419.021 344.729 419.32C343.449 419.619 342.361 420.024 341.465 420.536ZM331.993 426.104L341.465 426.296V442.936C341.039 443.064 340.441 443.171 339.673 443.256C338.905 443.384 338.073 443.448 337.177 443.448C335.385 443.448 334.063 443.128 333.209 442.488C332.399 441.848 331.993 440.696 331.993 439.032V426.104Z" fill="white"/>
<path d="M179.204 749.324H182.756V759.356C182.612 759.388 182.388 759.428 182.084 759.476C181.796 759.524 181.484 759.548 181.148 759.548C180.556 759.548 180.084 759.372 179.732 759.02C179.38 758.668 179.204 758.196 179.204 757.604V749.324ZM182.756 755.132H179.204V746.9C179.204 746.292 179.38 745.82 179.732 745.484C180.084 745.132 180.556 744.956 181.148 744.956C181.484 744.956 181.796 744.98 182.084 745.028C182.388 745.076 182.612 745.116 182.756 745.148V755.132ZM181.148 753.524V750.644H188.396C188.492 750.804 188.58 751.004 188.66 751.244C188.74 751.484 188.78 751.748 188.78 752.036C188.78 752.548 188.66 752.924 188.42 753.164C188.196 753.404 187.892 753.524 187.508 753.524H181.148ZM181.148 759.548V756.644H189.188C189.284 756.788 189.372 756.988 189.452 757.244C189.532 757.5 189.572 757.772 189.572 758.06C189.572 758.572 189.452 758.948 189.212 759.188C188.988 759.428 188.684 759.548 188.3 759.548H181.148ZM181.148 747.836V744.956H189.068C189.18 745.1 189.268 745.292 189.332 745.532C189.412 745.772 189.452 746.036 189.452 746.324C189.452 746.836 189.34 747.22 189.116 747.476C188.892 747.716 188.58 747.836 188.18 747.836H181.148ZM195.736 752.348L196.384 752.276C196.96 751.524 197.52 750.788 198.064 750.068C198.608 749.348 199.16 748.604 199.72 747.836C199.784 747.82 199.848 747.812 199.912 747.812C199.976 747.812 200.032 747.812 200.08 747.812C200.736 747.812 201.256 747.956 201.64 748.244C202.024 748.516 202.216 748.876 202.216 749.324C202.216 749.676 202.128 749.996 201.952 750.284C201.776 750.556 201.472 750.948 201.04 751.46C200.608 751.956 200.168 752.46 199.72 752.972C199.288 753.468 198.856 753.964 198.424 754.46L197.344 754.964C196.8 755.748 196.248 756.532 195.688 757.316C195.128 758.1 194.576 758.884 194.032 759.668C193.968 759.668 193.888 759.668 193.792 759.668C193.696 759.684 193.616 759.692 193.552 759.692C192.864 759.692 192.328 759.548 191.944 759.26C191.576 758.956 191.392 758.588 191.392 758.156C191.392 757.836 191.464 757.548 191.608 757.292C191.768 757.036 192.048 756.676 192.448 756.212C192.976 755.572 193.52 754.932 194.08 754.292C194.64 753.636 195.192 752.988 195.736 752.348ZM197.824 752.636L198.64 753.068C199.248 753.884 199.872 754.708 200.512 755.54C201.152 756.356 201.776 757.18 202.384 758.012C202.32 758.54 202.112 758.964 201.76 759.284C201.424 759.588 201.008 759.74 200.512 759.74C200 759.724 199.584 759.572 199.264 759.284C198.944 758.996 198.624 758.636 198.304 758.204C197.904 757.628 197.496 757.044 197.08 756.452C196.664 755.86 196.256 755.276 195.856 754.7L195.256 754.292C194.584 753.508 193.928 752.732 193.288 751.964C192.648 751.18 192 750.396 191.344 749.612C191.456 749.084 191.68 748.652 192.016 748.316C192.352 747.98 192.76 747.812 193.24 747.812C193.704 747.812 194.064 747.924 194.32 748.148C194.576 748.372 194.856 748.692 195.16 749.108C195.592 749.668 196.024 750.244 196.456 750.836C196.904 751.428 197.36 752.028 197.824 752.636ZM210.057 759.86C211.177 759.86 212.177 759.628 213.057 759.164C213.937 758.684 214.633 757.988 215.145 757.076C215.657 756.164 215.913 755.028 215.913 753.668C215.913 752.26 215.649 751.116 215.121 750.236C214.593 749.34 213.849 748.684 212.889 748.268C211.945 747.836 210.857 747.62 209.625 747.62C208.713 747.62 207.889 747.724 207.153 747.932C206.417 748.124 205.809 748.372 205.329 748.676C204.993 748.884 204.745 749.124 204.585 749.396C204.425 749.652 204.345 749.98 204.345 750.38V758.228H207.873V750.884C208.081 750.756 208.329 750.652 208.617 750.572C208.921 750.476 209.257 750.428 209.625 750.428C210.169 750.428 210.641 750.54 211.041 750.764C211.441 750.988 211.745 751.34 211.953 751.82C212.177 752.284 212.289 752.9 212.289 753.668C212.289 754.788 212.041 755.628 211.545 756.188C211.065 756.748 210.385 757.028 209.505 757.028C209.009 757.028 208.561 756.932 208.161 756.74C207.777 756.548 207.449 756.34 207.177 756.116V759.116C207.529 759.308 207.945 759.476 208.425 759.62C208.905 759.78 209.449 759.86 210.057 759.86ZM207.897 757.316H204.345V762.308C204.345 762.948 204.497 763.388 204.801 763.628C205.121 763.868 205.617 763.988 206.289 763.988C206.625 763.988 206.937 763.964 207.225 763.916C207.513 763.868 207.737 763.82 207.897 763.772V757.316ZM218.293 753.164L221.869 753.236V759.476C221.709 759.524 221.485 759.564 221.197 759.596C220.909 759.644 220.597 759.668 220.261 759.668C219.589 759.668 219.093 759.548 218.773 759.308C218.453 759.068 218.293 758.636 218.293 758.012V753.164ZM221.869 755.084L218.293 755.012V743.876C218.453 743.828 218.677 743.78 218.965 743.732C219.253 743.684 219.565 743.66 219.901 743.66C220.589 743.66 221.085 743.78 221.389 744.02C221.709 744.26 221.869 744.7 221.869 745.34V755.084ZM236.423 753.74C236.423 754.988 236.167 756.076 235.655 757.004C235.159 757.916 234.455 758.62 233.543 759.116C232.631 759.612 231.559 759.86 230.327 759.86C229.111 759.86 228.039 759.62 227.111 759.14C226.199 758.644 225.487 757.94 224.975 757.028C224.479 756.1 224.231 755.004 224.231 753.74C224.231 752.476 224.487 751.396 224.999 750.5C225.511 749.588 226.223 748.884 227.135 748.388C228.063 747.876 229.127 747.62 230.327 747.62C231.543 747.62 232.607 747.876 233.519 748.388C234.431 748.884 235.143 749.596 235.655 750.524C236.167 751.436 236.423 752.508 236.423 753.74ZM230.327 750.428C229.575 750.428 228.975 750.716 228.527 751.292C228.095 751.868 227.879 752.684 227.879 753.74C227.879 754.812 228.095 755.636 228.527 756.212C228.959 756.772 229.559 757.052 230.327 757.052C231.095 757.052 231.695 756.764 232.127 756.188C232.559 755.612 232.775 754.796 232.775 753.74C232.775 752.7 232.559 751.892 232.127 751.316C231.695 750.724 231.095 750.428 230.327 750.428ZM242.21 751.076V754.076H238.658V750.644C238.658 750.196 238.762 749.82 238.97 749.516C239.194 749.196 239.498 748.916 239.882 748.676C240.41 748.356 241.042 748.108 241.778 747.932C242.53 747.74 243.314 747.644 244.13 747.644C245.762 747.644 246.578 748.188 246.578 749.276C246.578 749.532 246.538 749.772 246.458 749.996C246.394 750.22 246.314 750.412 246.218 750.572C246.058 750.54 245.858 750.516 245.618 750.5C245.394 750.468 245.146 750.452 244.874 750.452C244.394 750.452 243.914 750.508 243.434 750.62C242.954 750.732 242.546 750.884 242.21 751.076ZM238.658 753.164L242.21 753.236V759.476C242.05 759.524 241.826 759.564 241.538 759.596C241.25 759.644 240.938 759.668 240.602 759.668C239.93 759.668 239.434 759.548 239.114 759.308C238.81 759.068 238.658 758.636 238.658 758.012V753.164ZM249.618 755.42L249.474 753.02L255.426 752.084C255.394 751.636 255.202 751.22 254.85 750.836C254.498 750.452 253.978 750.26 253.29 750.26C252.57 750.26 251.97 750.508 251.49 751.004C251.01 751.484 250.754 752.172 250.722 753.068L250.842 754.724C250.986 755.604 251.362 756.236 251.97 756.62C252.578 756.988 253.298 757.172 254.13 757.172C254.802 757.172 255.434 757.076 256.026 756.884C256.618 756.692 257.098 756.492 257.466 756.284C257.706 756.428 257.898 756.628 258.042 756.884C258.202 757.14 258.282 757.412 258.282 757.7C258.282 758.18 258.09 758.58 257.706 758.9C257.338 759.22 256.818 759.46 256.146 759.62C255.49 759.78 254.738 759.86 253.89 759.86C252.658 759.86 251.546 759.628 250.554 759.164C249.578 758.7 248.81 758.004 248.25 757.076C247.69 756.148 247.41 754.988 247.41 753.596C247.41 752.572 247.57 751.684 247.89 750.932C248.226 750.18 248.666 749.564 249.21 749.084C249.77 748.588 250.394 748.22 251.082 747.98C251.786 747.74 252.514 747.62 253.266 747.62C254.37 747.62 255.33 747.844 256.146 748.292C256.978 748.724 257.626 749.316 258.09 750.068C258.554 750.82 258.786 751.692 258.786 752.684C258.786 753.18 258.65 753.556 258.378 753.812C258.106 754.068 257.73 754.228 257.25 754.292L249.618 755.42Z" fill="white"/>
<rect x="56.5" y="727.5" width="325" height="53" rx="26.5" stroke="white" stroke-width="3"/>
<path d="M112.905 16C31.7696 16 -34 81.7696 -34 162.905C-34 244.04 31.7696 309.81 112.905 309.81C194.04 309.81 259.81 244.04 259.81 162.905C259.81 81.7696 194.04 16 112.905 16ZM161.65 227.828C159.34 230.126 156.917 232.537 154.951 234.509C153.179 236.286 151.93 238.478 151.296 240.854C150.401 244.206 149.679 247.595 148.47 250.847L138.169 278.599C130.018 280.376 121.583 281.377 112.905 281.377V265.158C113.906 257.682 108.379 243.679 99.4999 234.8C95.9458 231.245 93.9495 226.424 93.9495 221.395V202.433C93.9495 195.538 90.2354 189.2 84.1993 185.865C75.6871 181.156 63.5793 174.574 55.2862 170.398C48.486 166.975 42.1951 162.615 36.5381 157.515L36.0642 157.088C32.0188 153.436 28.427 149.312 25.3662 144.803C19.8099 136.646 10.7586 123.229 4.87651 114.509C17.0021 87.557 38.8542 65.9122 66.0079 54.1538L80.2305 61.2681C86.5332 64.4194 93.9495 59.8405 93.9495 52.7914V46.0978C98.6825 45.3336 103.498 44.8479 108.397 44.6642L125.161 61.428C128.863 65.1302 128.863 71.1308 125.161 74.8331L122.383 77.6053L116.258 83.7303C114.41 85.5785 114.41 88.5817 116.258 90.4299L119.036 93.2081C120.884 95.0562 120.884 98.0595 119.036 99.9076L114.297 104.646C113.407 105.535 112.201 106.033 110.944 106.033H105.619C104.387 106.033 103.202 106.512 102.314 107.377L96.4374 113.094C95.7171 113.795 95.2383 114.707 95.0701 115.698C94.9019 116.69 95.0529 117.709 95.5015 118.608L104.736 137.084C106.312 140.235 104.02 143.944 100.501 143.944H97.1601C96.0168 143.944 94.9151 143.529 94.0561 142.783L88.559 138.008C87.3151 136.929 85.8117 136.192 84.1966 135.87C82.5816 135.548 80.9106 135.652 79.3479 136.172L60.884 142.326C59.4744 142.796 58.2484 143.698 57.3798 144.904C56.5112 146.109 56.044 147.558 56.0445 149.044C56.0445 151.727 57.5609 154.174 59.96 155.376L66.5233 158.658C72.0974 161.448 78.2461 162.899 84.4777 162.899C90.7093 162.899 97.8591 179.065 103.433 181.855H142.973C148.002 181.855 152.818 183.851 156.378 187.405L164.488 195.514C167.875 198.903 169.778 203.5 169.777 208.292C169.776 211.923 169.058 215.518 167.663 218.87C166.268 222.223 164.225 225.267 161.65 227.828ZM213.014 173.716C209.584 172.857 206.592 170.754 204.632 167.81L193.981 151.834C192.423 149.5 191.591 146.756 191.591 143.95C191.591 141.143 192.423 138.399 193.981 136.065L205.585 118.662C206.96 116.606 208.843 114.936 211.059 113.834L218.748 109.99C226.756 125.936 231.377 143.873 231.377 162.905C231.377 168.041 230.938 173.07 230.299 178.034L213.014 173.716Z" fill="#FDFDFD" fill-opacity="0.38"/>
</g>
</g>
<path d="M36 58C36 43.0883 48.0883 31 63 31H376C390.912 31 403 43.0883 403 58V62H36V58Z" fill="#F8F8F8"/>
<path opacity="0.4" d="M349.931 42.9785H367.245C368.442 42.9785 369.412 43.9486 369.412 45.1452V51.8535C369.412 53.0501 368.442 54.0202 367.245 54.0202H349.931C348.735 54.0202 347.765 53.0501 347.765 51.8535V45.1452C347.765 43.9486 348.735 42.9785 349.931 42.9785Z" stroke="#151515"/>
<path opacity="0.5" d="M370.941 46.375V50.625C371.773 50.265 372.314 49.4277 372.314 48.5C372.314 47.5723 371.773 46.735 370.941 46.375" fill="#151515"/>
<path d="M349.323 45.9368C349.323 45.2005 349.92 44.6035 350.657 44.6035H366.52C367.256 44.6035 367.853 45.2005 367.853 45.9368V51.0618C367.853 51.7982 367.256 52.3952 366.52 52.3952H350.657C349.92 52.3952 349.323 51.7982 349.323 51.0618V45.9368Z" fill="#151515"/>
<path fill-rule="evenodd" clip-rule="evenodd" d="M334.226 44.8591C336.516 44.8592 338.719 45.7493 340.379 47.3453C340.503 47.4685 340.703 47.467 340.826 47.3418L342.021 46.1222C342.083 46.0588 342.118 45.9728 342.118 45.8833C342.117 45.7939 342.081 45.7083 342.018 45.6456C337.662 41.4228 330.789 41.4228 326.433 45.6456C326.37 45.7083 326.334 45.7938 326.333 45.8833C326.333 45.9727 326.367 46.0587 326.43 46.1222L327.625 47.3418C327.748 47.4672 327.948 47.4687 328.073 47.3453C329.733 45.7492 331.936 44.8591 334.226 44.8591ZM334.224 48.8175C335.484 48.8174 336.699 49.3026 337.633 50.1787C337.759 50.303 337.958 50.3003 338.081 50.1726L339.276 48.9219C339.339 48.8563 339.373 48.7673 339.373 48.6748C339.372 48.5823 339.335 48.4941 339.271 48.4298C336.427 45.6892 332.024 45.6892 329.18 48.4298C329.116 48.4941 329.079 48.5823 329.078 48.6749C329.078 48.7674 329.113 48.8564 329.176 48.9219L330.37 50.1726C330.493 50.3003 330.692 50.303 330.818 50.1787C331.752 49.3032 332.965 48.8181 334.224 48.8175ZM336.627 51.7113C336.629 51.8021 336.594 51.8897 336.53 51.9533L334.456 54.0688C334.395 54.131 334.312 54.166 334.226 54.166C334.139 54.166 334.056 54.131 333.995 54.0688L331.921 51.9533C331.857 51.8896 331.822 51.802 331.824 51.7113C331.826 51.6205 331.864 51.5345 331.931 51.4736C333.256 50.3413 335.196 50.3413 336.52 51.4736C336.587 51.5345 336.626 51.6205 336.627 51.7113Z" fill="#151515"/>
<path fill-rule="evenodd" clip-rule="evenodd" d="M321.186 43.8965C321.186 43.3097 320.725 42.834 320.157 42.834H319.127C318.559 42.834 318.098 43.3097 318.098 43.8965V53.1048C318.098 53.6916 318.559 54.1673 319.127 54.1673H320.157C320.725 54.1673 321.186 53.6916 321.186 53.1048V43.8965ZM314.324 45.3132H315.353C315.921 45.3132 316.382 45.7889 316.382 46.3757V53.1048C316.382 53.6916 315.921 54.1673 315.353 54.1673H314.324C313.755 54.1673 313.294 53.6916 313.294 53.1048V46.3757C313.294 45.7889 313.755 45.3132 314.324 45.3132ZM310.549 47.7923H309.52C308.951 47.7923 308.49 48.268 308.49 48.8548V53.1048C308.49 53.6916 308.951 54.1673 309.52 54.1673H310.549C311.118 54.1673 311.578 53.6916 311.578 53.1048V48.8548C311.578 48.268 311.118 47.7923 310.549 47.7923ZM306.775 50.9798C306.775 50.393 306.314 49.9173 305.745 49.9173H304.716C304.147 49.9173 303.686 50.393 303.686 50.9798V53.1048C303.686 53.6916 304.147 54.1673 304.716 54.1673H305.745C306.314 54.1673 306.775 53.6916 306.775 53.1048V50.9798Z" fill="#151515"/>
<path d="M73.1212 44.4146C73.7364 44.4146 74.3028 44.5098 74.8204 44.7002C75.3429 44.8906 75.7603 45.1787 76.0728 45.5645C76.3853 45.9453 76.5416 46.4238 76.5416 47C76.5416 47.4297 76.4561 47.8057 76.2852 48.1279C76.1192 48.4502 75.8922 48.7334 75.6041 48.9775C75.316 49.2168 74.9888 49.4268 74.6226 49.6074C75.0035 49.8076 75.3648 50.042 75.7066 50.3105C76.0484 50.5742 76.3267 50.8843 76.5416 51.2407C76.7613 51.5972 76.8712 52.0122 76.8712 52.4858C76.8712 53.0815 76.7125 53.5991 76.3951 54.0386C76.0777 54.4731 75.6383 54.8101 75.0767 55.0493C74.5152 55.2886 73.8634 55.4082 73.1212 55.4082C72.3204 55.4082 71.6392 55.2935 71.0777 55.064C70.5162 54.8345 70.0889 54.5073 69.796 54.0825C69.503 53.6528 69.3565 53.1401 69.3565 52.5444C69.3565 52.0562 69.4469 51.6313 69.6275 51.27C69.8131 50.9087 70.0621 50.5986 70.3746 50.3398C70.6871 50.0762 71.0313 49.8516 71.4073 49.666C71.0899 49.4658 70.7994 49.2388 70.5357 48.9849C70.2769 48.731 70.0694 48.4404 69.9132 48.1133C69.7618 47.7861 69.6861 47.4102 69.6861 46.9854C69.6861 46.4189 69.8448 45.9453 70.1622 45.5645C70.4845 45.1836 70.9068 44.8979 71.4293 44.7075C71.9517 44.5122 72.5157 44.4146 73.1212 44.4146ZM71.4512 52.4126C71.4512 52.7983 71.588 53.1182 71.8614 53.3721C72.1397 53.6211 72.5499 53.7456 73.0919 53.7456C73.6534 53.7456 74.0733 53.626 74.3516 53.3867C74.63 53.1426 74.7691 52.8228 74.7691 52.4272C74.7691 52.1538 74.6886 51.9146 74.5274 51.7095C74.3712 51.5044 74.1734 51.3213 73.9342 51.1602C73.6949 50.9941 73.4532 50.8403 73.2091 50.6987L73.0113 50.5962C72.6988 50.7378 72.4254 50.8965 72.191 51.0723C71.9615 51.248 71.7808 51.4458 71.649 51.6655C71.5172 51.8853 71.4512 52.1343 71.4512 52.4126ZM73.1065 46.0698C72.7354 46.0698 72.4278 46.165 72.1837 46.3555C71.9395 46.5459 71.8175 46.8145 71.8175 47.1611C71.8175 47.4053 71.8761 47.6201 71.9932 47.8057C72.1153 47.9863 72.274 48.145 72.4693 48.2817C72.6695 48.4185 72.8868 48.5454 73.1212 48.6626C73.3458 48.5552 73.5557 48.4355 73.7511 48.3037C73.9464 48.1719 74.1051 48.0132 74.2271 47.8276C74.3492 47.6421 74.4102 47.4199 74.4102 47.1611C74.4102 46.8145 74.2857 46.5459 74.0367 46.3555C73.7926 46.165 73.4825 46.0698 73.1065 46.0698ZM78.5029 54.2144C78.5029 53.7554 78.6274 53.4331 78.8765 53.2476C79.1304 53.062 79.4356 52.9692 79.792 52.9692C80.1387 52.9692 80.4365 53.062 80.6856 53.2476C80.9395 53.4331 81.0664 53.7554 81.0664 54.2144C81.0664 54.6538 80.9395 54.9712 80.6856 55.1665C80.4365 55.3618 80.1387 55.4595 79.792 55.4595C79.4356 55.4595 79.1304 55.3618 78.8765 55.1665C78.6274 54.9712 78.5029 54.6538 78.5029 54.2144ZM78.5029 48.1646C78.5029 47.7056 78.6274 47.3833 78.8765 47.1978C79.1304 47.0122 79.4356 46.9194 79.792 46.9194C80.1387 46.9194 80.4365 47.0122 80.6856 47.1978C80.9395 47.3833 81.0664 47.7056 81.0664 48.1646C81.0664 48.6089 80.9395 48.9287 80.6856 49.124C80.4365 49.3145 80.1387 49.4097 79.792 49.4097C79.4356 49.4097 79.1304 49.3145 78.8765 49.124C78.6274 48.9287 78.5029 48.6089 78.5029 48.1646ZM88.3525 55.2617H86.0893V49.0654C86.0893 48.8945 86.0917 48.6846 86.0966 48.4355C86.1015 48.1816 86.1088 47.9229 86.1186 47.6592C86.1283 47.3906 86.1381 47.1489 86.1479 46.9341C86.0942 46.9976 85.9843 47.1074 85.8183 47.2637C85.6572 47.415 85.5058 47.5518 85.3642 47.6738L84.1337 48.6626L83.0424 47.3003L86.4921 44.5537H88.3525V55.2617ZM95.4701 48.4209C96.1244 48.4209 96.7054 48.5454 97.2132 48.7944C97.7259 49.0435 98.1288 49.4097 98.4217 49.8931C98.7147 50.3765 98.8612 50.9722 98.8612 51.6802C98.8612 52.4517 98.7001 53.1182 98.3778 53.6797C98.0604 54.2363 97.5843 54.6636 96.9496 54.9614C96.3197 55.2593 95.5335 55.4082 94.5912 55.4082C94.0296 55.4082 93.4999 55.3594 93.0018 55.2617C92.5086 55.1689 92.0765 55.0249 91.7054 54.8296V52.874C92.0765 53.0693 92.5209 53.2354 93.0384 53.3721C93.5609 53.5039 94.0516 53.5698 94.5106 53.5698C94.9598 53.5698 95.3382 53.5112 95.6459 53.394C95.9535 53.272 96.1854 53.0864 96.3417 52.8374C96.5028 52.5835 96.5834 52.2612 96.5834 51.8706C96.5834 51.3481 96.4076 50.9478 96.056 50.6694C95.7044 50.3911 95.1649 50.252 94.4374 50.252C94.159 50.252 93.8685 50.2788 93.5658 50.3325C93.2679 50.3862 93.0189 50.4399 92.8187 50.4937L91.9178 50.0103L92.3207 44.5537H98.1288V46.4727H94.3055L94.1078 48.5747C94.2738 48.5405 94.4544 48.5063 94.6498 48.4722C94.8451 48.438 95.1185 48.4209 95.4701 48.4209Z" fill="#151515"/>
<path d="M159 31H279V31C279 45.3594 267.359 57 253 57H185C170.641 57 159 45.3594 159 31V31Z" fill="#222222"/>
<rect x="190" y="41" width="54" height="4" rx="2" fill="#393939"/>
<circle cx="250" cy="43" r="2" fill="#393939"/>
<rect x="31.5" y="27.5" width="375" height="840" rx="49.5" stroke="#222222" stroke-width="15"/>
</g>
<defs>
<filter id="filter0_dii_566_576" x="0" y="0" width="438" height="903" filterUnits="userSpaceOnUse" color-interpolation-filters="sRGB">
<feFlood flood-opacity="0" result="BackgroundImageFix"/>
<feColorMatrix in="SourceAlpha" type="matrix" values="0 0 0 0 0 0 0 0 0 0 0 0 0 0 0 0 0 0 127 0" result="hardAlpha"/>
<feOffset dy="4"/>
<feGaussianBlur stdDeviation="12"/>
<feColorMatrix type="matrix" values="0 0 0 0 0 0 0 0 0 0 0 0 0 0 0 0 0 0 0.35 0"/>
<feBlend mode="normal" in2="BackgroundImageFix" result="effect1_dropShadow_566_576"/>
<feBlend mode="normal" in="SourceGraphic" in2="effect1_dropShadow_566_576" result="shape"/>
<feColorMatrix in="SourceAlpha" type="matrix" values="0 0 0 0 0 0 0 0 0 0 0 0 0 0 0 0 0 0 127 0" result="hardAlpha"/>
<feOffset dx="-9" dy="-10"/>
<feGaussianBlur stdDeviation="5"/>
<feComposite in2="hardAlpha" operator="arithmetic" k2="-1" k3="1"/>
<feColorMatrix type="matrix" values="0 0 0 0 0.916667 0 0 0 0 0.916667 0 0 0 0 0.916667 0 0 0 0.19 0"/>
<feBlend mode="normal" in2="shape" result="effect2_innerShadow_566_576"/>
<feColorMatrix in="SourceAlpha" type="matrix" values="0 0 0 0 0 0 0 0 0 0 0 0 0 0 0 0 0 0 127 0" result="hardAlpha"/>
<feOffset dx="-3" dy="-7"/>
<feGaussianBlur stdDeviation="2.5"/>
<feComposite in2="hardAlpha" operator="arithmetic" k2="-1" k3="1"/>
<feColorMatrix type="matrix" values="0 0 0 0 0.233333 0 0 0 0 0.233333 0 0 0 0 0.233333 0 0 0 0.17 0"/>
<feBlend mode="normal" in2="effect2_innerShadow_566_576" result="effect3_innerShadow_566_576"/>
</filter>
<clipPath id="clip0_566_576">
<path d="M39 62H399V840C399 851.598 389.598 861 378 861H60C48.402 861 39 851.598 39 840V62Z" fill="white"/>
</clipPath>
<clipPath id="clip1_566_576">
<rect width="360" height="800" fill="white" transform="translate(39 62)"/>
</clipPath>
</defs>
</svg>
