<svg width="388" height="828" viewBox="0 0 388 828" fill="none" xmlns="http://www.w3.org/2000/svg">
<g filter="url(#filter0_d_471_432)">
<g clip-path="url(#clip0_471_432)">
<rect x="10" y="10" width="360" height="800" rx="30" fill="#D45769"/>
<path d="M75.0038 360.28H74.6198C74.1931 361.645 73.6811 363.16 73.0838 364.824C72.5291 366.488 71.9531 368.237 71.3558 370.072C70.7584 371.864 70.1824 373.656 69.6278 375.448L68.4758 381.208C68.2198 382.019 67.9638 382.872 67.7078 383.768C67.4944 384.664 67.2598 385.539 67.0038 386.392C66.7478 387.245 66.5131 388.056 66.2998 388.824C66.0864 389.592 65.8731 390.317 65.6598 391C65.1904 391.128 64.6571 391.256 64.0598 391.384C63.4624 391.555 62.7584 391.64 61.9478 391.64C60.1558 391.64 58.7904 391.32 57.8518 390.68C56.9131 390.04 56.4438 389.101 56.4438 387.864C56.4438 387.352 56.5078 386.819 56.6358 386.264C56.8064 385.709 56.9984 385.069 57.2118 384.344C57.5958 382.936 58.1291 381.165 58.8118 379.032C59.5371 376.899 60.3051 374.595 61.1158 372.12C61.9691 369.603 62.8224 367.128 63.6758 364.696C64.5718 362.264 65.3824 360.024 66.1078 357.976C66.8758 355.928 67.4944 354.328 67.9638 353.176C68.5611 352.792 69.4998 352.451 70.7798 352.152C72.1024 351.811 73.4038 351.64 74.6838 351.64C76.5184 351.64 78.1611 351.917 79.6118 352.472C81.0624 352.984 81.9798 353.816 82.3638 354.968C83.1744 357.229 84.0491 359.853 84.9878 362.84C85.9691 365.784 86.9504 368.877 87.9318 372.12C88.9131 375.363 89.8518 378.52 90.7478 381.592C91.6864 384.621 92.4971 387.352 93.1798 389.784C92.7104 390.296 92.0278 390.723 91.1318 391.064C90.2358 391.448 89.1691 391.64 87.9318 391.64C86.1824 391.64 84.9451 391.32 84.2198 390.68C83.4944 390.04 82.9398 389.08 82.5558 387.8L80.5078 380.632L79.4198 375.192C78.9078 373.272 78.3744 371.416 77.8198 369.624C77.2651 367.832 76.7531 366.147 76.2838 364.568C75.8144 362.947 75.3878 361.517 75.0038 360.28ZM64.1878 382.36L67.9638 374.808H82.9398L84.2198 382.36H64.1878ZM113.413 391.96C116.399 391.96 119.066 391.341 121.413 390.104C123.759 388.824 125.615 386.968 126.981 384.536C128.346 382.104 129.029 379.075 129.029 375.448C129.029 371.693 128.325 368.643 126.917 366.296C125.509 363.907 123.525 362.157 120.965 361.048C118.447 359.896 115.546 359.32 112.261 359.32C109.829 359.32 107.631 359.597 105.669 360.152C103.706 360.664 102.085 361.325 100.805 362.136C99.9088 362.691 99.2474 363.331 98.8208 364.056C98.3941 364.739 98.1808 365.613 98.1808 366.68V387.608H107.589V368.024C108.143 367.683 108.805 367.405 109.573 367.192C110.383 366.936 111.279 366.808 112.261 366.808C113.711 366.808 114.97 367.107 116.037 367.704C117.103 368.301 117.914 369.24 118.469 370.52C119.066 371.757 119.365 373.4 119.365 375.448C119.365 378.435 118.703 380.675 117.381 382.168C116.101 383.661 114.287 384.408 111.941 384.408C110.618 384.408 109.423 384.152 108.357 383.64C107.333 383.128 106.458 382.573 105.733 381.976V389.976C106.671 390.488 107.781 390.936 109.061 391.32C110.341 391.747 111.791 391.96 113.413 391.96ZM107.653 385.176H98.1808V398.488C98.1808 400.195 98.5861 401.368 99.3968 402.008C100.25 402.648 101.573 402.968 103.365 402.968C104.261 402.968 105.093 402.904 105.861 402.776C106.629 402.648 107.226 402.52 107.653 402.392V385.176ZM144.528 368.536V376.536H135.056V367.384C135.056 366.189 135.333 365.187 135.888 364.376C136.485 363.523 137.296 362.776 138.32 362.136C139.728 361.283 141.413 360.621 143.376 360.152C145.381 359.64 147.472 359.384 149.648 359.384C154 359.384 156.176 360.835 156.176 363.736C156.176 364.419 156.069 365.059 155.856 365.656C155.685 366.253 155.472 366.765 155.216 367.192C154.789 367.107 154.256 367.043 153.616 367C153.018 366.915 152.357 366.872 151.632 366.872C150.352 366.872 149.072 367.021 147.792 367.32C146.512 367.619 145.424 368.024 144.528 368.536ZM135.056 374.104L144.528 374.296V390.936C144.101 391.064 143.504 391.171 142.736 391.256C141.968 391.384 141.136 391.448 140.24 391.448C138.448 391.448 137.125 391.128 136.272 390.488C135.461 389.848 135.056 388.696 135.056 387.032V374.104ZM164.284 380.12L163.9 373.72L179.772 371.224C179.687 370.029 179.175 368.92 178.236 367.896C177.298 366.872 175.911 366.36 174.076 366.36C172.156 366.36 170.556 367.021 169.276 368.344C167.996 369.624 167.314 371.459 167.228 373.848L167.548 378.264C167.932 380.611 168.935 382.296 170.556 383.32C172.178 384.301 174.098 384.792 176.316 384.792C178.108 384.792 179.794 384.536 181.372 384.024C182.951 383.512 184.231 382.979 185.212 382.424C185.852 382.808 186.364 383.341 186.748 384.024C187.175 384.707 187.388 385.432 187.388 386.2C187.388 387.48 186.876 388.547 185.852 389.4C184.871 390.253 183.484 390.893 181.692 391.32C179.943 391.747 177.938 391.96 175.676 391.96C172.391 391.96 169.426 391.341 166.78 390.104C164.178 388.867 162.13 387.011 160.636 384.536C159.143 382.061 158.396 378.968 158.396 375.256C158.396 372.525 158.823 370.157 159.676 368.152C160.572 366.147 161.746 364.504 163.196 363.224C164.69 361.901 166.354 360.92 168.188 360.28C170.066 359.64 172.007 359.32 174.012 359.32C176.956 359.32 179.516 359.917 181.692 361.112C183.911 362.264 185.639 363.843 186.876 365.848C188.114 367.853 188.732 370.179 188.732 372.824C188.732 374.147 188.37 375.149 187.644 375.832C186.919 376.515 185.916 376.941 184.636 377.112L164.284 380.12ZM223.932 371.096V377.112H214.396V371.416C214.396 369.837 213.926 368.685 212.988 367.96C212.092 367.192 210.897 366.808 209.404 366.808C208.337 366.808 207.356 366.957 206.46 367.256C205.564 367.512 204.753 367.832 204.028 368.216V377.112H194.556V367.128C194.556 366.061 194.769 365.187 195.196 364.504C195.665 363.779 196.326 363.139 197.18 362.584C198.545 361.645 200.294 360.877 202.428 360.28C204.561 359.64 206.908 359.32 209.468 359.32C214.076 359.32 217.638 360.344 220.156 362.392C222.673 364.397 223.932 367.299 223.932 371.096ZM194.556 374.168H204.028V390.936C203.601 391.064 203.004 391.171 202.236 391.256C201.468 391.384 200.636 391.448 199.74 391.448C197.948 391.448 196.625 391.128 195.772 390.488C194.961 389.848 194.556 388.696 194.556 387.032V374.168ZM214.396 374.168H223.932V390.936C223.505 391.064 222.908 391.171 222.14 391.256C221.372 391.384 220.54 391.448 219.644 391.448C217.852 391.448 216.529 391.128 215.676 390.488C214.822 389.848 214.396 388.696 214.396 387.032V374.168ZM251.272 383.384V364.12H260.744V384.6C260.744 385.624 260.531 386.499 260.104 387.224C259.678 387.907 258.995 388.525 258.056 389.08C256.904 389.848 255.411 390.509 253.576 391.064C251.742 391.661 249.63 391.96 247.24 391.96C243.656 391.96 240.563 391.363 237.96 390.168C235.4 388.973 233.416 387.181 232.008 384.792C230.6 382.36 229.896 379.352 229.896 375.768C229.896 372.013 230.6 368.941 232.008 366.552C233.459 364.12 235.4 362.307 237.832 361.112C240.264 359.917 242.952 359.32 245.896 359.32C247.432 359.32 248.798 359.491 249.992 359.832C251.187 360.173 252.168 360.579 252.936 361.048V368.856C252.339 368.344 251.55 367.875 250.568 367.448C249.587 367.021 248.456 366.808 247.176 366.808C245.683 366.808 244.36 367.128 243.208 367.768C242.056 368.408 241.16 369.389 240.52 370.712C239.88 372.035 239.56 373.72 239.56 375.768C239.56 378.755 240.222 380.952 241.544 382.36C242.91 383.768 244.744 384.472 247.048 384.472C247.987 384.472 248.819 384.365 249.544 384.152C250.27 383.896 250.846 383.64 251.272 383.384ZM260.744 365.976L251.272 366.04V349.336C251.656 349.208 252.232 349.08 253 348.952C253.768 348.824 254.6 348.76 255.496 348.76C257.374 348.76 258.718 349.08 259.528 349.72C260.339 350.36 260.744 351.533 260.744 353.24V365.976ZM272.722 380.12L272.338 373.72L288.21 371.224C288.124 370.029 287.612 368.92 286.674 367.896C285.735 366.872 284.348 366.36 282.514 366.36C280.594 366.36 278.994 367.021 277.714 368.344C276.434 369.624 275.751 371.459 275.666 373.848L275.986 378.264C276.37 380.611 277.372 382.296 278.994 383.32C280.615 384.301 282.535 384.792 284.754 384.792C286.546 384.792 288.231 384.536 289.81 384.024C291.388 383.512 292.668 382.979 293.65 382.424C294.29 382.808 294.802 383.341 295.186 384.024C295.612 384.707 295.826 385.432 295.826 386.2C295.826 387.48 295.314 388.547 294.29 389.4C293.308 390.253 291.922 390.893 290.13 391.32C288.38 391.747 286.375 391.96 284.114 391.96C280.828 391.96 277.863 391.341 275.218 390.104C272.615 388.867 270.567 387.011 269.074 384.536C267.58 382.061 266.834 378.968 266.834 375.256C266.834 372.525 267.26 370.157 268.114 368.152C269.01 366.147 270.183 364.504 271.634 363.224C273.127 361.901 274.791 360.92 276.626 360.28C278.503 359.64 280.444 359.32 282.45 359.32C285.394 359.32 287.954 359.917 290.13 361.112C292.348 362.264 294.076 363.843 295.314 365.848C296.551 367.853 297.17 370.179 297.17 372.824C297.17 374.147 296.807 375.149 296.082 375.832C295.356 376.515 294.354 376.941 293.074 377.112L272.722 380.12ZM312.465 368.536V376.536H302.993V367.384C302.993 366.189 303.271 365.187 303.825 364.376C304.423 363.523 305.233 362.776 306.257 362.136C307.665 361.283 309.351 360.621 311.313 360.152C313.319 359.64 315.409 359.384 317.585 359.384C321.937 359.384 324.113 360.835 324.113 363.736C324.113 364.419 324.007 365.059 323.793 365.656C323.623 366.253 323.409 366.765 323.153 367.192C322.727 367.107 322.193 367.043 321.553 367C320.956 366.915 320.295 366.872 319.569 366.872C318.289 366.872 317.009 367.021 315.729 367.32C314.449 367.619 313.361 368.024 312.465 368.536ZM302.993 374.104L312.465 374.296V390.936C312.039 391.064 311.441 391.171 310.673 391.256C309.905 391.384 309.073 391.448 308.177 391.448C306.385 391.448 305.063 391.128 304.209 390.488C303.399 389.848 302.993 388.696 302.993 387.032V374.104Z" fill="white"/>
<path d="M83.905 -36C2.7696 -36 -63 29.7696 -63 110.905C-63 192.04 2.7696 257.81 83.905 257.81C165.04 257.81 230.81 192.04 230.81 110.905C230.81 29.7696 165.04 -36 83.905 -36ZM132.65 175.828C130.34 178.126 127.917 180.537 125.951 182.509C124.179 184.286 122.93 186.478 122.296 188.854C121.401 192.206 120.679 195.595 119.47 198.847L109.169 226.599C101.018 228.376 92.5831 229.377 83.905 229.377V213.158C84.9061 205.682 79.3794 191.679 70.4999 182.8C66.9458 179.245 64.9495 174.424 64.9495 169.395V150.433C64.9495 143.538 61.2354 137.2 55.1993 133.865C46.6871 129.156 34.5793 122.574 26.2862 118.398C19.486 114.974 13.1951 110.615 7.5381 105.515L7.06421 105.088C3.01877 101.436 -0.572996 97.3116 -3.63379 92.8025C-9.19012 84.6457 -18.2414 71.2288 -24.1235 62.5093C-11.9979 35.557 9.85422 13.9122 37.008 2.15384L51.2305 9.26806C57.5332 12.4194 64.9495 7.84048 64.9495 0.791411V-5.90224C69.6825 -6.66639 74.4983 -7.15212 79.3971 -7.33575L96.1609 9.42801C99.8632 13.1302 99.8632 19.1308 96.1609 22.8331L93.3827 25.6053L87.2578 31.7303C85.4096 33.5785 85.4096 36.5817 87.2578 38.4299L90.0359 41.2081C91.8841 43.0562 91.8841 46.0595 90.0359 47.9076L85.2971 52.6465C84.4073 53.5345 83.2014 54.0331 81.9443 54.0326H76.619C75.3869 54.0326 74.2022 54.5124 73.3136 55.3773L67.4374 61.0935C66.7171 61.795 66.2383 62.7071 66.0701 63.6983C65.9019 64.6896 66.0529 65.7086 66.5015 66.6084L75.7364 85.0841C77.3121 88.2354 75.0196 91.9436 71.501 91.9436H68.1601C67.0168 91.9436 65.9151 91.5289 65.0561 90.7826L59.559 86.0082C58.3151 84.929 56.8117 84.1922 55.1966 83.8702C53.5816 83.5483 51.9106 83.6522 50.3479 84.1718L31.884 90.3264C30.4744 90.7965 29.2484 91.6982 28.3798 92.9038C27.5112 94.1095 27.044 95.5579 27.0445 97.0438C27.0445 99.7272 28.5609 102.174 30.96 103.376L37.5233 106.658C43.0974 109.448 49.2461 110.899 55.4777 110.899C61.7093 110.899 68.8591 127.065 74.4332 129.855H113.973C119.002 129.855 123.818 131.851 127.378 135.405L135.488 143.514C138.875 146.903 140.778 151.5 140.777 156.292C140.776 159.923 140.058 163.518 138.663 166.87C137.268 170.223 135.225 173.267 132.65 175.828ZM184.014 121.716C180.584 120.857 177.592 118.754 175.632 115.81L164.981 99.8338C163.423 97.4997 162.591 94.7561 162.591 91.9495C162.591 89.143 163.423 86.3993 164.981 84.0652L176.585 66.6617C177.96 64.6062 179.843 62.9358 182.059 61.834L189.748 57.9896C197.756 73.9359 202.377 91.8725 202.377 110.905C202.377 116.041 201.938 121.07 201.299 126.034L184.014 121.716Z" fill="#FDFDFD" fill-opacity="0.38"/>
</g>
</g>
<defs>
<filter id="filter0_d_471_432" x="0" y="0" width="388" height="828" filterUnits="userSpaceOnUse" color-interpolation-filters="sRGB">
<feFlood flood-opacity="0" result="BackgroundImageFix"/>
<feColorMatrix in="SourceAlpha" type="matrix" values="0 0 0 0 0 0 0 0 0 0 0 0 0 0 0 0 0 0 127 0" result="hardAlpha"/>
<feOffset dx="4" dy="4"/>
<feGaussianBlur stdDeviation="7"/>
<feComposite in2="hardAlpha" operator="out"/>
<feColorMatrix type="matrix" values="0 0 0 0 0 0 0 0 0 0 0 0 0 0 0 0 0 0 0.25 0"/>
<feBlend mode="normal" in2="BackgroundImageFix" result="effect1_dropShadow_471_432"/>
<feBlend mode="normal" in="SourceGraphic" in2="effect1_dropShadow_471_432" result="shape"/>
</filter>
<clipPath id="clip0_471_432">
<rect x="10" y="10" width="360" height="800" rx="30" fill="white"/>
</clipPath>
</defs>
</svg>
