<svg width="376" height="816" viewBox="0 0 376 816" fill="none" xmlns="http://www.w3.org/2000/svg">
<g filter="url(#filter0_d_584_6246)">
<g clip-path="url(#clip0_584_6246)">
<rect x="4" y="4" width="360" height="800" rx="30" fill="#F5F8FA"/>
<path d="M348 -264C0.0719833 -264 -282 18.072 -282 366C-282 713.928 0.0719833 996 348 996C695.928 996 978 713.928 978 366C978 18.072 695.928 -264 348 -264ZM521.859 27.795C530.385 13.032 564.426 -45.999 623.541 -97.155C608.757 -20.463 574.653 38.61 566.127 53.352C553.359 75.507 540.57 97.641 517.281 103.899L509.028 118.2H881.064C893.521 144.91 903.932 172.527 912.207 200.814H519.066C510.416 172.657 500.022 145.066 487.944 118.2H489.33L502.539 95.331C496.302 72.063 509.07 49.908 521.859 27.795M348 779.007C348 779.007 182.793 594.081 182.793 366C182.793 137.898 348 -47.007 348 -47.007C348 -47.007 513.186 137.898 513.186 366C513.186 594.081 348 779.007 348 779.007ZM-185.064 118.2H186.951L178.677 103.878C155.409 97.62 142.62 75.465 129.831 53.331C121.305 38.589 87.222 -20.484 72.438 -97.176C131.511 -45.999 165.573 13.011 174.099 27.774C186.888 49.908 199.677 72.042 193.44 95.331L206.67 118.2H208.035C195.935 145.057 185.541 172.649 176.913 200.814H-216.207C-207.932 172.527 -197.521 144.91 -185.064 118.2M104.463 784.845L203.226 613.779H-185.064C-197.512 587.072 -207.923 559.463 -216.207 531.186H176.913C187.099 564.356 199.704 596.734 214.629 628.059L119.205 793.329L104.463 784.845M881.064 613.8H492.795L591.537 784.866L576.795 793.371L481.35 628.101C496.282 596.777 508.894 564.399 519.087 531.228H912.228C903.924 559.494 893.506 587.096 881.064 613.8" fill="white"/>
<path d="M203.436 366C203.436 426.417 212.067 482.823 226.83 531.207C262.299 497.082 286.05 435.93 286.05 366C286.05 296.028 262.32 234.918 226.83 200.814C212.067 249.198 203.436 305.541 203.436 366M469.17 200.814C433.701 234.918 409.95 296.028 409.95 366C409.95 435.93 433.701 497.082 469.17 531.207C483.912 482.802 492.543 426.417 492.543 366C492.543 305.541 483.912 249.198 469.17 200.814Z" fill="white"/>
<path d="M348.001 415.812C366.36 415.812 381.244 393.501 381.244 365.979C381.244 338.457 366.36 316.146 348.001 316.146C329.641 316.146 314.758 338.457 314.758 365.979C314.758 393.501 329.641 415.812 348.001 415.812Z" fill="white"/>
<path d="M344.095 142.434C344.095 78.7407 341.197 19.3738 336.262 -31.5931C324.397 4.37981 316.459 68.7447 316.459 142.434C316.459 216.122 324.397 280.529 336.262 316.46C341.218 265.493 344.095 206.084 344.095 142.434ZM379.543 142.434C379.543 68.7447 371.584 4.37981 359.719 -31.5931C354.784 19.3738 351.907 78.7407 351.907 142.434C351.907 206.063 354.784 265.472 359.719 316.46C371.584 280.55 379.543 216.122 379.543 142.434ZM316.459 589.838C316.459 663.527 324.397 727.934 336.262 763.865C341.197 712.877 344.095 653.468 344.095 589.838C344.095 526.166 341.197 466.799 336.262 415.811C324.397 451.784 316.459 516.149 316.459 589.838ZM351.907 589.838C351.907 653.468 354.784 712.877 359.719 763.865C371.584 727.934 379.543 663.527 379.543 589.838C379.543 516.149 371.584 451.784 359.719 415.811C354.763 466.799 351.907 526.166 351.907 589.838Z" fill="white"/>
<path d="M106.886 355.25C106.674 353.265 105.78 351.72 104.205 350.614C102.644 349.508 100.614 348.955 98.1136 348.955C96.3561 348.955 94.8485 349.22 93.5909 349.75C92.3333 350.28 91.3712 351 90.7045 351.909C90.0379 352.818 89.697 353.856 89.6818 355.023C89.6818 355.992 89.9015 356.833 90.3409 357.545C90.7955 358.258 91.4091 358.864 92.1818 359.364C92.9545 359.848 93.8106 360.258 94.75 360.591C95.6894 360.924 96.6364 361.205 97.5909 361.432L101.955 362.523C103.712 362.932 105.402 363.485 107.023 364.182C108.659 364.879 110.121 365.758 111.409 366.818C112.712 367.879 113.742 369.159 114.5 370.659C115.258 372.159 115.636 373.917 115.636 375.932C115.636 378.659 114.939 381.061 113.545 383.136C112.152 385.197 110.136 386.811 107.5 387.977C104.879 389.129 101.705 389.705 97.9773 389.705C94.3561 389.705 91.2121 389.144 88.5455 388.023C85.8939 386.902 83.8182 385.265 82.3182 383.114C80.8333 380.962 80.0303 378.341 79.9091 375.25H88.2045C88.3258 376.871 88.8258 378.22 89.7045 379.295C90.5833 380.371 91.7273 381.174 93.1364 381.705C94.5606 382.235 96.1515 382.5 97.9091 382.5C99.7424 382.5 101.348 382.227 102.727 381.682C104.121 381.121 105.212 380.348 106 379.364C106.788 378.364 107.189 377.197 107.205 375.864C107.189 374.652 106.833 373.652 106.136 372.864C105.439 372.061 104.462 371.394 103.205 370.864C101.962 370.318 100.508 369.833 98.8409 369.409L93.5455 368.045C89.7121 367.061 86.6818 365.568 84.4545 363.568C82.2424 361.553 81.1364 358.879 81.1364 355.545C81.1364 352.803 81.8788 350.402 83.3636 348.341C84.8636 346.28 86.9015 344.682 89.4773 343.545C92.053 342.394 94.9697 341.818 98.2273 341.818C101.53 341.818 104.424 342.394 106.909 343.545C109.409 344.682 111.371 346.265 112.795 348.295C114.22 350.311 114.955 352.629 115 355.25H106.886ZM164.744 365.727C164.744 370.742 163.805 375.038 161.926 378.614C160.063 382.174 157.517 384.902 154.29 386.795C151.078 388.689 147.434 389.636 143.358 389.636C139.282 389.636 135.631 388.689 132.403 386.795C129.191 384.886 126.646 382.152 124.767 378.591C122.903 375.015 121.972 370.727 121.972 365.727C121.972 360.712 122.903 356.424 124.767 352.864C126.646 349.288 129.191 346.553 132.403 344.659C135.631 342.765 139.282 341.818 143.358 341.818C147.434 341.818 151.078 342.765 154.29 344.659C157.517 346.553 160.063 349.288 161.926 352.864C163.805 356.424 164.744 360.712 164.744 365.727ZM156.267 365.727C156.267 362.197 155.714 359.22 154.608 356.795C153.517 354.356 152.002 352.515 150.062 351.273C148.123 350.015 145.888 349.386 143.358 349.386C140.828 349.386 138.593 350.015 136.653 351.273C134.714 352.515 133.191 354.356 132.085 356.795C130.994 359.22 130.449 362.197 130.449 365.727C130.449 369.258 130.994 372.242 132.085 374.682C133.191 377.106 134.714 378.947 136.653 380.205C138.593 381.447 140.828 382.068 143.358 382.068C145.888 382.068 148.123 381.447 150.062 380.205C152.002 378.947 153.517 377.106 154.608 374.682C155.714 372.242 156.267 369.258 156.267 365.727ZM172.716 342.455H183.034L196.852 376.182H197.398L211.216 342.455H221.534V389H213.443V357.023H213.011L200.148 388.864H194.102L181.239 356.955H180.807V389H172.716V342.455ZM272.307 365.727C272.307 370.742 271.367 375.038 269.489 378.614C267.625 382.174 265.08 384.902 261.852 386.795C258.64 388.689 254.996 389.636 250.92 389.636C246.845 389.636 243.193 388.689 239.966 386.795C236.754 384.886 234.208 382.152 232.33 378.591C230.466 375.015 229.534 370.727 229.534 365.727C229.534 360.712 230.466 356.424 232.33 352.864C234.208 349.288 236.754 346.553 239.966 344.659C243.193 342.765 246.845 341.818 250.92 341.818C254.996 341.818 258.64 342.765 261.852 344.659C265.08 346.553 267.625 349.288 269.489 352.864C271.367 356.424 272.307 360.712 272.307 365.727ZM263.83 365.727C263.83 362.197 263.277 359.22 262.17 356.795C261.08 354.356 259.564 352.515 257.625 351.273C255.686 350.015 253.451 349.386 250.92 349.386C248.39 349.386 246.155 350.015 244.216 351.273C242.277 352.515 240.754 354.356 239.648 356.795C238.557 359.22 238.011 362.197 238.011 365.727C238.011 369.258 238.557 372.242 239.648 374.682C240.754 377.106 242.277 378.947 244.216 380.205C246.155 381.447 248.39 382.068 250.92 382.068C253.451 382.068 255.686 381.447 257.625 380.205C259.564 378.947 261.08 377.106 262.17 374.682C263.277 372.242 263.83 369.258 263.83 365.727Z" fill="#212153"/>
</g>
</g>
<defs>
<filter id="filter0_d_584_6246" x="0" y="0" width="376" height="816" filterUnits="userSpaceOnUse" color-interpolation-filters="sRGB">
<feFlood flood-opacity="0" result="BackgroundImageFix"/>
<feColorMatrix in="SourceAlpha" type="matrix" values="0 0 0 0 0 0 0 0 0 0 0 0 0 0 0 0 0 0 127 0" result="hardAlpha"/>
<feMorphology radius="4" operator="dilate" in="SourceAlpha" result="effect1_dropShadow_584_6246"/>
<feOffset dx="4" dy="4"/>
<feGaussianBlur stdDeviation="2"/>
<feComposite in2="hardAlpha" operator="out"/>
<feColorMatrix type="matrix" values="0 0 0 0 0 0 0 0 0 0 0 0 0 0 0 0 0 0 0.25 0"/>
<feBlend mode="normal" in2="BackgroundImageFix" result="effect1_dropShadow_584_6246"/>
<feBlend mode="normal" in="SourceGraphic" in2="effect1_dropShadow_584_6246" result="shape"/>
</filter>
<clipPath id="clip0_584_6246">
<rect x="4" y="4" width="360" height="800" rx="30" fill="white"/>
</clipPath>
</defs>
</svg>
